<svg width="16" height="16" viewBox="0 0 200 200" xmlns="http://www.w3.org/2000/svg">
  <path fill="#424242" d="M200,200H0V0h200v200ZM126.0869408,126.0876965h-17.3913043v27.3291925l11.8012422,11.8012422h27.3291925v-17.3913043h-21.7391304v-21.7391304ZM165.2173756,120.4976344l-11.8012422-11.8012422h-27.3291925v17.3913043h21.7391304v21.7391304h17.3913043v-27.3291925ZM91.3043478,108.6963789h-17.3913043v17.3913043h17.3913043v-17.3913043ZM34.7826087,153.4168758l11.8012422,11.8012422h44.7204969v-17.3913043h-39.1304348v-39.1304348h-17.3913043v44.7204969ZM145.5226954,73.9130253v-27.3291925l-11.8012422-11.8012422h-25.0258167v17.3913043h19.4357546v21.7391304h-19.4357546v17.3913043h56.5217391v-17.3913043h-19.6946802ZM52.173913,34.7826087h-17.3913043v56.5217391h17.3913043v-19.5652174h21.7391304v19.5652174h17.3913043v-19.5652174l-17.3913043-17.3913043h-21.7391304v-19.5652174ZM91.3043478,34.7826087h-17.3913043v19.5652174h17.3913043v-19.5652174Z" />
</svg>